<?xml version="1.0" encoding="UTF-8"?>
<svg width="24px" height="22px" viewBox="0 0 24 22" version="1.1" xmlns="http://www.w3.org/2000/svg" xmlns:xlink="http://www.w3.org/1999/xlink">
    <!-- Generator: Sketch 52.2 (67145) - http://www.bohemiancoding.com/sketch -->
    <title>Shape</title>
    <desc>Created with Sketch.</desc>
    <g id="Page-1" stroke="none" stroke-width="1" fill="none" fill-rule="evenodd">
        <g id="answer" fill="#FFFFFF">
            <path d="M0,22 L0,-8.8817842e-16 L18,-8.8817842e-16 L18,8.25846912 L15.8343082,8.25846912 L15.8343082,2.86507268 L2.56268922,2.86507268 L2.56268922,19.1780706 L7,19.1780706 L7,22 L0,22 Z M9,18.9615125 L17.9615125,10 L21,13.0384875 L12.0384875,22 L9,22 L9,18.9615125 Z M23.7509579,10.4418902 L22.192848,12 L19,8.80715198 L20.5581098,7.24904215 C20.890166,6.91698595 21.4265645,6.91698595 21.7586207,7.24904215 L23.7509579,9.24137931 C24.083014,9.5734355 24.083014,10.109834 23.7509579,10.4418902 Z M7,5 L14,5 L14,7 L7,7 L7,5 Z M7,11 L12,11 L12,13 L7,13 L7,11 Z M7,8 L14,8 L14,10 L7,10 L7,8 Z M4,5 L6,5 L6,7 L4,7 L4,5 Z M4,11 L6,11 L6,13 L4,13 L4,11 Z M4,8 L6,8 L6,10 L4,10 L4,8 Z" id="Shape"></path>
        </g>
    </g>
</svg>